<?xml version="1.0" encoding="iso-8859-1"?>
<!-- Generator: Adobe Illustrator 16.0.0, SVG Export Plug-In . SVG Version: 6.00 Build 0)  -->
<!DOCTYPE svg PUBLIC "-//W3C//DTD SVG 1.1//EN" "http://www.w3.org/Graphics/SVG/1.1/DTD/svg11.dtd">
<svg xmlns="http://www.w3.org/2000/svg" xmlns:xlink="http://www.w3.org/1999/xlink" version="1.1" id="Capa_1" x="0px" y="0px" width="512px" height="512px" viewBox="0 0 31.938 31.938" style="enable-background:new 0 0 31.938 31.938;" xml:space="preserve">
<g>
	<g>
		<polygon points="31.938,16.261 0,16.261 0,18.059 1.413,18.059 1.413,31.5 4.028,31.5 4.028,18.059 27.119,18.059 27.119,31.5     29.734,31.5 29.734,18.059 31.938,18.059   " fill="#fdf2df"/>
		<path d="M1.638,16.487l0.305-0.036h10.5v-1.468h-1.609v-0.786H8.726v0.786h-6.62C1.83,11.776,1.408,4.143,3.419,2.226    C4.52,1.173,5.894,0.805,7.19,1.215c1.094,0.346,1.957,1.187,2.289,2.192l-0.924,0.09l0.138,1.43l-1.43,0.139L6.461,9.496    l7.705-0.747l-1.639-4.193l-1.24,0.122l-0.139-1.432l-1.051,0.102C9.737,2.1,8.702,1.048,7.375,0.63    C5.86,0.152,4.264,0.57,2.995,1.78c-2.208,2.107-1.796,9.883-1.508,13.201H0.333v1.468h1.301    C1.635,16.462,1.637,16.48,1.638,16.487z" fill="#fdf2df"/>
		<path d="M10.121,9.885c0.632-0.062,1.095-0.623,1.034-1.255c-0.695,0.068-1.2,0.117-2.29,0.223    C8.927,9.483,9.489,9.947,10.121,9.885z" fill="#fdf2df"/>
		<path d="M13.833,16.261h17.536v-0.783h-0.758l-0.112-1.991l-0.226,0.088c-0.67,0.262-1.332,0.39-2.022,0.39    c-1.03,0-1.911-0.284-2.688-0.536c-0.666-0.215-1.231-0.395-1.713-0.337c-0.707,0.085-1.059,0.63-1.234,1.179    c-0.176-0.549-0.528-1.094-1.233-1.179c-0.481-0.06-1.049,0.122-1.714,0.338c-0.777,0.251-1.658,0.534-2.688,0.535    c-0.691,0-1.353-0.128-2.023-0.39l-0.225-0.088l-0.112,1.991h-0.787V16.261z M23.891,13.439c0.416-0.052,0.94,0.121,1.564,0.322    c0.762,0.246,1.711,0.553,2.796,0.553c0.658,0,1.29-0.108,1.925-0.331L30.25,15.3h-7.456    C22.814,14.833,22.956,13.552,23.891,13.439z M15.055,13.983c0.635,0.223,1.267,0.331,1.923,0.331    c1.086,0,2.035-0.307,2.795-0.553c0.625-0.201,1.149-0.374,1.565-0.322c0.933,0.112,1.076,1.393,1.097,1.861h-7.455L15.055,13.983    z" fill="#fdf2df"/>
	</g>
</g>
<g>
</g>
<g>
</g>
<g>
</g>
<g>
</g>
<g>
</g>
<g>
</g>
<g>
</g>
<g>
</g>
<g>
</g>
<g>
</g>
<g>
</g>
<g>
</g>
<g>
</g>
<g>
</g>
<g>
</g>
</svg>
