<?xml version="1.0" encoding="iso-8859-1"?>
<!-- Generator: Adobe Illustrator 18.1.1, SVG Export Plug-In . SVG Version: 6.00 Build 0)  -->
<svg xmlns="http://www.w3.org/2000/svg" xmlns:xlink="http://www.w3.org/1999/xlink" version="1.1" id="Capa_1" x="0px" y="0px" viewBox="0 0 32 32" style="enable-background:new 0 0 32 32;" xml:space="preserve" width="512px" height="512px">
<g>
	<g id="book_x5F_alt2">
		<path d="M16,6c0,0-4-4-16-4v24c12.125,0,16,4,16,4s3.875-4,16-4V2C20,2,16,6,16,6z M4,6    c5.084,0.426,8.203,1.602,10,2.555v16.109c-1.797-0.949-4.916-2.125-10-2.555V6z M28,22.109c-5.086,0.43-8.205,1.605-10,2.555    V8.555C19.795,7.602,22.914,6.426,28,6V22.109z" fill="#FFFFFF"/>
	</g>
</g>
<g>
</g>
<g>
</g>
<g>
</g>
<g>
</g>
<g>
</g>
<g>
</g>
<g>
</g>
<g>
</g>
<g>
</g>
<g>
</g>
<g>
</g>
<g>
</g>
<g>
</g>
<g>
</g>
<g>
</g>
</svg>
